<?xml version="1.0" encoding="UTF-8" standalone="no"?>
<!-- Created with Inkscape (http://www.inkscape.org/) -->

<svg
   width="85mm"
   height="108.00001mm"
   viewBox="0 0 85 108.00001"
   version="1.1"
   id="svg5"
   inkscape:version="1.2.2 (732a01da63, 2022-12-09)"
   sodipodi:docname="andy-web-logo-white.svg"
   xmlns:inkscape="http://www.inkscape.org/namespaces/inkscape"
   xmlns:sodipodi="http://sodipodi.sourceforge.net/DTD/sodipodi-0.dtd"
   xmlns="http://www.w3.org/2000/svg"
   xmlns:svg="http://www.w3.org/2000/svg">
  <sodipodi:namedview
     id="namedview7"
     pagecolor="#ffffff"
     bordercolor="#000000"
     borderopacity="0.25"
     inkscape:showpageshadow="2"
     inkscape:pageopacity="0.0"
     inkscape:pagecheckerboard="0"
     inkscape:deskcolor="#d1d1d1"
     inkscape:document-units="mm"
     showgrid="false"
     inkscape:zoom="1.4142136"
     inkscape:cx="204.70741"
     inkscape:cy="170.05918"
     inkscape:window-width="1440"
     inkscape:window-height="890"
     inkscape:window-x="-6"
     inkscape:window-y="-6"
     inkscape:window-maximized="1"
     inkscape:current-layer="layer1" />
  <defs
     id="defs2">
    <rect
       x="398.80823"
       y="93.338097"
       width="359.21024"
       height="263.04373"
       id="rect5853" />
    <inkscape:path-effect
       effect="fillet_chamfer"
       id="path-effect5749"
       is_visible="true"
       lpeversion="1"
       nodesatellites_param="F,1,0,1,0,0.015,0,2 @ F,1,0,1,0,0.015,0,2 @ F,1,0,1,0,0.015,0,2 @ F,1,0,1,0,0.015,0,2"
       unit="px"
       method="auto"
       mode="F"
       radius="1.5"
       chamfer_steps="1"
       flexible="true"
       use_knot_distance="true"
       apply_no_radius="true"
       apply_with_radius="true"
       only_selected="false"
       hide_knots="false" />
    <inkscape:path-effect
       effect="spiro"
       id="path-effect5722"
       is_visible="true"
       lpeversion="1" />
    <inkscape:path-effect
       effect="spiro"
       id="path-effect5714"
       is_visible="true"
       lpeversion="1" />
    <inkscape:path-effect
       effect="spiro"
       id="path-effect5710"
       is_visible="true"
       lpeversion="1" />
    <inkscape:path-effect
       effect="spiro"
       id="path-effect5706"
       is_visible="true"
       lpeversion="1" />
    <inkscape:path-effect
       effect="spiro"
       id="path-effect5702"
       is_visible="true"
       lpeversion="1" />
    <inkscape:path-effect
       effect="spiro"
       id="path-effect5698"
       is_visible="true"
       lpeversion="1" />
    <inkscape:path-effect
       effect="spiro"
       id="path-effect5694"
       is_visible="true"
       lpeversion="1" />
    <inkscape:path-effect
       effect="spiro"
       id="path-effect5690"
       is_visible="true"
       lpeversion="1" />
    <inkscape:path-effect
       effect="spiro"
       id="path-effect5686"
       is_visible="true"
       lpeversion="1" />
    <inkscape:path-effect
       effect="spiro"
       id="path-effect5682"
       is_visible="true"
       lpeversion="1" />
    <inkscape:path-effect
       effect="spiro"
       id="path-effect5678"
       is_visible="true"
       lpeversion="1" />
    <inkscape:path-effect
       effect="spiro"
       id="path-effect5674"
       is_visible="true"
       lpeversion="1" />
    <inkscape:path-effect
       effect="spiro"
       id="path-effect5670"
       is_visible="true"
       lpeversion="1" />
    <inkscape:path-effect
       effect="spiro"
       id="path-effect5662"
       is_visible="true"
       lpeversion="1" />
    <inkscape:path-effect
       effect="fillet_chamfer"
       id="path-effect5371"
       is_visible="true"
       lpeversion="1"
       nodesatellites_param="F,0,0,1,0,0,0,1 @ F,0,0,1,0,0.79375,0,1 @ F,0,0,1,0,0.79375,0,1 @ F,0,0,1,0,0.79375,0,1 @ F,0,0,1,0,0.79375,0,1 @ F,0,0,1,0,0.79375,0,1 @ F,0,0,1,0,0.79375,0,1 @ F,0,0,1,0,0,0,1 | F,0,0,1,0,0,0,1 @ F,0,0,1,0,0.086316951,0,1 @ F,0,0,1,0,0.077935156,0,1 @ F,0,0,1,0,0.086316951,0,1 @ F,0,0,1,0,0.090668467,0,1 @ F,0,1,1,0,0.090668467,0,1 @ F,0,0,1,0,0.1506327,0,1 @ F,0,0,1,0,0,0,1"
       unit="px"
       method="auto"
       mode="F"
       radius="3"
       chamfer_steps="1"
       flexible="false"
       use_knot_distance="true"
       apply_no_radius="true"
       apply_with_radius="true"
       only_selected="false"
       hide_knots="false" />
  </defs>
  <g
     inkscape:label="Layer 1"
     inkscape:groupmode="layer"
     id="layer1">
    <rect
       style="font-variation-settings:normal;vector-effect:none;fill:none;fill-opacity:1;fill-rule:evenodd;stroke:#000000;stroke-width:0.226452;stroke-linecap:butt;stroke-linejoin:miter;stroke-miterlimit:4;stroke-dasharray:none;stroke-dashoffset:0;stroke-opacity:1;-inkscape-stroke:none;stop-color:#000000"
       id="rect1002"
       width="84.773544"
       height="107.77355"
       x="0.11322564"
       y="0.11322564" />
    <path
       id="rect346"
       style="fill:none;fill-rule:evenodd;stroke:#000000;stroke-width:0.633754;stroke-dasharray:none;stop-color:#000000"
       d="M 79.799451,72.543234 42.717609,102.59231 5.200549,72.190663 M 5.2203343,35.794883 42.71761,5.4092752 79.680779,35.362187"
       sodipodi:nodetypes="cccccc" />
    <path
       style="fill:#000000;stroke:#000000;stroke-width:0.00292785;stroke-linecap:round;stroke-miterlimit:0;stroke-dasharray:none;stroke-dashoffset:23.04"
       d=""
       id="path5538" />
    <path
       id="rect3182"
       style="fill:none;fill-rule:evenodd;stroke:#000000;stroke-width:0.264583;stop-color:#000000"
       d="m 55.696183,30.604075 8.74e-4,19.377373 a 738535.03,738535.03 89.997477 0 1 7e-5,1.5875 l 2.2e-5,0.507254 a 0.7937159,0.7937159 134.99877 0 1 -0.793716,0.79375 h -0.35796 -22.00176 l -2.087448,0 a 0.79371414,0.79371414 45.001294 0 1 -0.793714,-0.79375 l 2.3e-5,-0.515531 9.41e-4,-20.939511 m -0.001,-0.89223 c 0,0 0.01191,-1.98591 0.01107,-2.547292 -7.1e-5,-0.04763 -0.004,-0.126055 0.009,-0.171753 0.0025,-0.0089 0.0055,-0.01701 0.0091,-0.02462 0.01822,-0.03897 0.07633,-0.08334 0.116144,-0.09917 0.07216,-0.02869 0.16795,-0.04166 0.236192,-0.04749 0.04713,-0.004 0.124161,-0.0047 0.171833,-0.0047 l 25.011754,-0.0058 c 0.05007,-1.2e-5 0.131397,4.67e-4 0.181237,0.0058 0.045,0.0048 0.09949,0.01354 0.145702,0.02948 0.04636,0.01599 0.104177,0.07611 0.117905,0.123766 0.0049,0.01687 0.0087,0.03467 0.01181,0.05243 0.01412,0.0815 0.01192,0.216739 0.01192,0.299931 l 1.9e-5,2.387508"
       sodipodi:nodetypes="cccccccccsaccacc"
       inkscape:path-effect="#path-effect5371"
       inkscape:original-d="m 55.696183,30.604075 9.1e-4,20.171123 9e-5,2.094754 h -1.94546 -22.00176 -2.087448 l 9.5e-5,-2.103031 9.05e-4,-20.145761 m -0.001,-0.89223 c 0,0 0.01341,-2.236269 0.01077,-2.633532 -6.06e-4,-0.09127 0.02082,-0.130887 0.06713,-0.170907 0.100764,-0.08708 0.389119,-0.09062 0.389119,-0.09062 l 25.188739,-0.0058 c 0,0 0.23823,0.0019 0.3136,0.07893 0.0674,0.06889 0.0643,0.281842 0.0643,0.281842 l 2e-5,2.538141" />
    <path
       id="rect3910"
       style="fill:none;fill-rule:evenodd;stroke:#000000;stroke-width:0.199947;stop-color:#000000"
       d="m 55.729493,30.557114 v 0.07754 H 29.630884 v -0.08027 m 0,-0.846172 v -0.07702 h 26.098609 v 0.08316"
       sodipodi:nodetypes="cccccccc" />
    <path
       style="color:#000000;fill:#000000;fill-rule:evenodd;stroke:#000000;-inkscape-stroke:none"
       d="m 34.298013,35.497135 c -0.0606,-0.05396 -0.15503,-0.04689 -0.20899,0.01367 l -0.96679,1.083984 c -0.0549,0.06162 -0.0499,0.159943 0.0117,0.214844 l 7.02118,6.244964 1.34797,-1.137542 z m -0.0937,0.199218 7.00195,6.238282 -1.00873,0.879014 -6.87994,-6.123155 z"
       id="rect5373"
       sodipodi:nodetypes="cccccccccccc" />
    <path
       style="color:#000000;fill:#000000;fill-rule:evenodd;stroke:#000000;-inkscape-stroke:none"
       d="m 40.122553,40.685158 -6.98665,6.274867 c -0.0618,0.05474 -0.0688,0.151671 -0.0156,0.214844 l 0.0312,0.03711 0.9375,1.107422 c 0.0529,0.06255 0.1498,0.07012 0.21094,0.01563 l 7.20313,-6.417968 z m -0.0195,0.302734 1.1071,0.90768 -7.00196,6.238281 -0.89062,-1.052734 z"
       id="path5409"
       sodipodi:nodetypes="ccccccccccccc" />
    <path
       style="fill:#ffffff;stroke:#ffffff;stroke-width:0.0165625;stroke-linecap:round;stroke-miterlimit:0;stroke-dasharray:none;stroke-dashoffset:23.04"
       d="m 33.768952,47.598567 -0.435464,-0.514659 0.04746,-0.04563 c 0.20674,-0.198771 5.571688,-4.999162 5.588767,-5.000662 0.01214,-0.0011 0.253225,0.202703 0.535728,0.452816 l 0.513641,0.454753 -0.04592,0.03996 c -0.02527,0.02199 -1.328499,1.182835 -2.896089,2.579687 -1.567593,1.396849 -2.855228,2.541677 -2.861411,2.544064 -0.0062,0.0024 -0.207206,-0.227264 -0.446712,-0.510326 z"
       id="path5532" />
    <path
       style="fill:#ffffff;stroke:#ffffff;stroke-width:0.0165625;stroke-linecap:round;stroke-miterlimit:0;stroke-dasharray:none;stroke-dashoffset:23.04"
       d="m 39.672801,42.332354 c -0.28298,-0.251606 -0.514506,-0.463029 -0.514506,-0.469829 0,-0.0068 0.212966,-0.20352 0.473258,-0.437152 0.420584,-0.377513 0.476257,-0.422225 0.500226,-0.401744 0.01484,0.01267 0.138591,0.115102 0.275019,0.227616 0.258066,0.212836 0.740441,0.638408 0.749141,0.660926 0.0037,0.0096 -0.679918,0.62995 -0.94157,0.854427 -0.02413,0.02069 -0.08309,-0.02659 -0.541568,-0.434244 z"
       id="path5534" />
    <path
       style="fill:#000000;stroke:#000000;stroke-width:0.0165625;stroke-linecap:round;stroke-miterlimit:0;stroke-dasharray:none;stroke-dashoffset:23.04"
       d="M 36.223074,39.262385 C 34.713295,37.917916 33.444716,36.789428 33.40401,36.754633 L 33.33,36.691363 33.733143,36.238127 c 0.221729,-0.24928 0.418936,-0.470003 0.438242,-0.490495 l 0.0351,-0.03726 0.189744,0.170153 c 0.241138,0.21625 5.487093,4.889871 5.526069,4.923179 0.02959,0.02529 -0.03693,0.08864 -0.869284,0.827789 l -0.08488,0.07538 z"
       id="path5536" />
    <path
       style="fill:#ffffff;stroke:#ffffff;stroke-width:0.00292785;stroke-linecap:round;stroke-miterlimit:0;stroke-dasharray:none;stroke-dashoffset:23.04"
       d="m 39.895617,40.879773 c 0.02657,-0.02999 0.04048,-0.05167 0.04048,-0.06307 v -0.01019 l 0.01169,0.0094 c 0.0064,0.0052 0.01169,0.01029 0.01169,0.0114 0,0.0024 -0.07499,0.0701 -0.07765,0.0701 -0.0011,0 0.0052,-0.0079 0.01379,-0.01765 z"
       id="path5540" />
    <path
       style="fill:#000000;stroke:#000000;stroke-width:0.264999;stroke-linecap:round;stroke-miterlimit:0;stroke-dasharray:none;stroke-dashoffset:23.04"
       d="m 37.959483,42.951814 c 0.0052,-0.01615 0.01408,-0.03109 0.0258,-0.04334 0.0099,-0.01035 0.02172,-0.01874 0.0315,-0.0292 0.01564,-0.01673 0.02543,-0.03802 0.0393,-0.05625 0.01657,-0.02178 0.03861,-0.03874 0.057,-0.05902 0.01355,-0.01494 0.0251,-0.03168 0.0395,-0.0458 0.01458,-0.0143 0.03181,-0.02567 0.0464,-0.03996 0.0141,-0.01382 0.02553,-0.03016 0.0395,-0.04411 0.01511,-0.01508 0.03296,-0.02713 0.0486,-0.04165 0.02578,-0.02394 0.04522,-0.05432 0.0725,-0.07654 0.01482,-0.01207 0.03168,-0.0215 0.0463,-0.03381 0.01076,-0.0091 0.02019,-0.01959 0.0306,-0.02905 0.02609,-0.02372 0.05777,-0.0403 0.0862,-0.06117 0.03578,-0.02627 0.06609,-0.05911 0.0982,-0.08976 0.05371,-0.05126 0.112716,-0.09663 0.17229,-0.140937 0.03988,-0.02966 0.08057,-0.05938 0.11158,-0.09821 0.01047,-0.01312 0.0198,-0.02722 0.03153,-0.03923 0.01173,-0.012 0.02644,-0.022 0.04307,-0.02425 0.01301,-0.0018 0.0264,0.0014 0.03807,0.0074 0.01168,0.006 0.02175,0.01476 0.03063,0.02444 0.01774,0.01936 0.03104,0.04261 0.04995,0.06084 0.01978,0.01906 0.04475,0.0317 0.0669,0.04795 0.05353,0.03927 0.08905,0.09826 0.13802,0.143089 0.02679,0.02453 0.05734,0.04457 0.0854,0.06763 0.04825,0.03965 0.08928,0.08833 0.14186,0.122034 0.02489,0.01595 0.0521,0.02836 0.0755,0.04642 0.01848,0.01426 0.0344,0.03191 0.0543,0.04411 0.01375,0.0084 0.02911,0.01407 0.0424,0.0232 0.0171,0.01175 0.0299,0.02867 0.0453,0.04257 0.0181,0.01633 0.03983,0.02854 0.0564,0.04642 0.01039,0.01121 0.01849,0.02442 0.0246,0.03843 0.0037,0.0085 0.0068,0.01749 0.012,0.02521 0.0069,0.01014 0.01704,0.01752 0.0251,0.02674 0.01423,0.01626 0.0213,0.03747 0.033,0.05564 0.02051,0.03185 0.05397,0.05266 0.0865,0.07208 0.0072,0.0043 0.01452,0.0086 0.0213,0.01368 0.01253,0.0093 0.02329,0.021 0.0315,0.03427"
       id="path5660"
       inkscape:original-d="m 37.959483,42.951814 c -0.003,-0.02916 0.006,-0.03027 0.0258,-0.04334 0.0122,-0.0079 0.0227,-0.01762 0.0315,-0.0292 0.0138,-0.01815 0.0245,-0.0389 0.0393,-0.05625 0.0179,-0.02096 0.0387,-0.03857 0.057,-0.05902 0.0134,-0.01503 0.0245,-0.03216 0.0395,-0.0458 0.0151,-0.01373 0.0314,-0.02609 0.0464,-0.03996 0.0146,-0.01344 0.0256,-0.03008 0.0395,-0.04411 0.0151,-0.01519 0.0335,-0.02646 0.0486,-0.04165 0.0245,-0.02458 0.0454,-0.05491 0.0725,-0.07654 0.015,-0.01196 0.0317,-0.02133 0.0463,-0.03381 0.0107,-0.0092 0.0197,-0.02006 0.0306,-0.02905 0.0271,-0.02246 0.0588,-0.03898 0.0862,-0.06117 0.0346,-0.02801 0.0641,-0.06145 0.0982,-0.08976 0.0571,-0.04738 0.11841,-0.08961 0.17229,-0.140937 0.0358,-0.03411 0.0768,-0.06315 0.11158,-0.09821 0.01,-0.0096 0.0549,-0.06969 0.0746,-0.06348 0.0618,0.01955 0.0722,0.05271 0.11865,0.09268 0.0207,0.01786 0.0467,0.02873 0.0669,0.04795 0.0481,0.04578 0.0866,0.100887 0.13802,0.143089 0.0279,0.02291 0.059,0.04295 0.0854,0.06763 0.0456,0.04254 0.0907,0.08606 0.14186,0.122034 0.0242,0.01701 0.0513,0.02951 0.0755,0.04642 0.0193,0.01349 0.0343,0.03132 0.0543,0.04411 0.0135,0.0087 0.0301,0.01244 0.0424,0.0232 0.0156,0.01373 0.0297,0.02883 0.0453,0.04257 0.018,0.01588 0.0413,0.0274 0.0564,0.04642 0.0138,0.0173 0.0145,0.01826 0.0246,0.03843 0.003,0.0061 0.008,0.01916 0.012,0.02521 0.007,0.01058 0.017,0.0168 0.0251,0.02674 0.0135,0.01685 0.0208,0.03799 0.033,0.05564 0.0153,0.02204 0.0612,0.06095 0.0865,0.07208 0.008,0.0037 0.0155,0.0064 0.0213,0.01368 0.006,0.008 0.0184,0.04986 0.0315,0.03427"
       inkscape:path-effect="#path-effect5662" />
    <path
       style="fill:#000000;stroke:#000000;stroke-width:0.264999;stroke-linecap:round;stroke-miterlimit:0;stroke-dasharray:none;stroke-dashoffset:23.04"
       d="m 40.186523,42.780597 c 0.01455,-0.0043 0.02854,-0.01054 0.0415,-0.01844 0.04323,-0.02634 0.07293,-0.0697 0.11081,-0.103282 0.01263,-0.01119 0.02618,-0.02131 0.0386,-0.03274 0.01619,-0.01491 0.03041,-0.03201 0.0478,-0.0455 0.0071,-0.0055 0.0147,-0.01039 0.022,-0.01566 0.02564,-0.01851 0.04741,-0.04175 0.0701,-0.06378 0.02379,-0.0231 0.04875,-0.04502 0.0718,-0.06886 0.02172,-0.02246 0.04174,-0.04662 0.065,-0.06747 0.02602,-0.02332 0.05568,-0.04212 0.0838,-0.06286 0.04377,-0.03228 0.08383,-0.06926 0.12403,-0.105894 0.01847,-0.01683 0.03699,-0.03361 0.0559,-0.04995 0.01898,-0.0164 0.0384,-0.0324 0.0595,-0.04595 0.02607,-0.01674 0.05445,-0.02958 0.08101,-0.04553 0.02656,-0.01596 0.05185,-0.03569 0.06761,-0.06236 0.0071,-0.01199 0.01227,-0.02539 0.022,-0.03535 0.0087,-0.0089 0.02049,-0.01441 0.02947,-0.0231 0.0045,-0.0043 0.0083,-0.0096 0.01004,-0.01558 8.75e-4,-0.003 0.0012,-0.0062 8.87e-4,-0.0093 -3.37e-4,-0.0031 -0.0014,-0.0062 -0.0031,-0.0088 -8.64e-4,-0.0013 -0.0019,-0.0025 -0.0027,-0.0038 -8.15e-4,-0.0013 -0.0014,-0.0029 -0.0013,-0.0044 8.8e-5,-0.0011 5.33e-4,-0.0021 0.0012,-0.0029 7.16e-4,-8.05e-4 0.0017,-0.0014 0.0028,-0.0016 -0.03366,-0.01384 -0.0649,-0.03354 -0.0919,-0.05794 -0.02033,-0.01837 -0.03817,-0.03927 -0.057,-0.05917 -0.01717,-0.01814 -0.03525,-0.03551 -0.0553,-0.05041 -0.0096,-0.0072 -0.01967,-0.01371 -0.0295,-0.02059 -0.0266,-0.01861 -0.05154,-0.03948 -0.0761,-0.06071 -0.04668,-0.04033 -0.09217,-0.08204 -0.1394,-0.121727 -0.02044,-0.01718 -0.04123,-0.034 -0.0632,-0.04918 -0.02023,-0.01398 -0.04144,-0.02655 -0.0612,-0.04119 -0.03196,-0.02368 -0.05982,-0.05257 -0.0845,-0.08376 -0.01684,-0.02128 -0.03258,-0.04401 -0.0542,-0.0604 -0.02346,-0.01778 -0.05247,-0.02702 -0.0761,-0.04457 -0.01069,-0.0079 -0.02027,-0.01757 -0.0321,-0.02368 -0.009,-0.0046 -0.01894,-0.0071 -0.028,-0.01154 -0.009,-0.0044 -0.0169,-0.01077 -0.026,-0.0149 -0.0107,-0.0049 -0.02262,-0.0065 -0.03437,-0.0067 -0.01175,-2.18e-4 -0.02348,8.87e-4 -0.03523,0.0012 -0.04516,0.0011 -0.08993,-0.0099 -0.13509,-0.0092 -0.04851,7.47e-4 -0.0957,0.01491 -0.14202,0.02936 -0.01961,0.0061 -0.0393,0.01235 -0.0576,0.02167 -0.01164,0.0059 -0.02264,0.01307 -0.0344,0.01876 -0.02258,0.01091 -0.0475,0.01624 -0.0702,0.0269 -0.03343,0.0157 -0.0605,0.04217 -0.0919,0.06163 -0.01509,0.0094 -0.03153,0.01736 -0.0432,0.03074 -0.007,0.008 -0.01198,0.01769 -0.0189,0.02582 -0.0052,0.0062 -0.01151,0.01133 -0.0175,0.01675 -0.03005,0.02721 -0.05343,0.06105 -0.0828,0.08899 -0.03778,0.03594 -0.08441,0.06116 -0.12449,0.09452 -0.02953,0.02458 -0.05523,0.05336 -0.0827,0.08023 -0.0234,0.02289 -0.04811,0.04442 -0.0718,0.06701 -0.03367,0.0321 -0.06601,0.0669 -0.10712,0.08868 -0.01569,0.0083 -0.03239,0.01456 -0.0493,0.01998 -0.0033,0.0011 -0.0067,0.0021 -0.01,0.0031 0.0035,0.0051 0.0079,0.0096 0.0128,0.01323 0.0095,0.0071 0.02096,0.01097 0.03234,0.01428 0.01138,0.0033 0.02299,0.0062 0.03356,0.01154 0.01112,0.0056 0.0207,0.01385 0.0312,0.02059 0.01118,0.0072 0.02346,0.01271 0.0338,0.02106 0.01188,0.0096 0.02065,0.02244 0.02867,0.03542 0.008,0.01299 0.01556,0.02641 0.02563,0.03789 0.01749,0.01993 0.04157,0.03281 0.0659,0.04334 0.03668,0.01587 0.07519,0.0274 0.11128,0.04457 0.03445,0.01638 0.06664,0.03798 0.0932,0.06536 0.02657,0.02738 0.0474,0.06066 0.05818,0.09726 0.0051,0.01728 0.0079,0.03515 0.01241,0.0526 0.0045,0.01745 0.01079,0.0348 0.02189,0.04899 0.01608,0.02056 0.04058,0.0326 0.0595,0.05057 0.01223,0.01162 0.02197,0.02557 0.03271,0.03859 0.01074,0.01302 0.0229,0.02544 0.03819,0.03257 0.0084,0.0039 0.01745,0.0061 0.0263,0.0088 0.02255,0.0069 0.04398,0.0171 0.0643,0.02905 0.01914,0.01126 0.03746,0.02415 0.0532,0.03981 0.01242,0.01236 0.02315,0.02635 0.0357,0.03858 0.01561,0.01522 0.0338,0.0275 0.0518,0.03981 0.01237,0.0085 0.02474,0.01701 0.0381,0.02381 0.02009,0.01022 0.04218,0.01636 0.0615,0.02797 0.01179,0.0071 0.02254,0.01632 0.02969,0.02806 0.0072,0.01175 0.01044,0.02619 0.0072,0.03956 -0.0017,0.007 -0.0052,0.01365 -0.01,0.01905 -0.0012,1.91e-4 -0.0023,8.36e-4 -0.003,0.0018 -7.32e-4,9.34e-4 -0.0011,0.0021 -0.001,0.0033 8.1e-5,0.001 5.01e-4,0.002 0.0011,0.0028 6.38e-4,8.12e-4 0.0015,0.0014 0.0024,0.0019 0.0019,8.73e-4 0.004,9.47e-4 0.0061,6.57e-4 0.002,-2.9e-4 0.004,-9.23e-4 0.006,-0.0014 0.002,-4.91e-4 0.0041,-8.44e-4 0.0061,-5.59e-4 0.003,4.11e-4 0.0055,0.0021 0.0083,0.0032 0.0014,5.35e-4 0.0029,9.23e-4 0.0043,9.02e-4 0.0015,-2.1e-5 0.003,-4.79e-4 0.0041,-0.0015 9.7e-4,-8.62e-4 0.0016,-0.0021 0.0018,-0.0034 1.79e-4,-0.0013 -6.9e-5,-0.0026 -6.34e-4,-0.0038 -5.65e-4,-0.0012 -0.0014,-0.0022 -0.0025,-0.003 -0.001,-7.83e-4 -0.0022,-0.0013 -0.0035,-0.0017 -0.0025,-7.48e-4 -0.0051,-7.42e-4 -0.0077,-5.66e-4 -0.0026,1.77e-4 -0.0052,5.17e-4 -0.0078,4.16e-4 -0.0052,-2.01e-4 -0.01017,-0.0022 -0.01442,-0.0051 -0.0043,-0.0029 -0.0078,-0.0068 -0.01082,-0.011 -0.0061,-0.0084 -0.01014,-0.01805 -0.01616,-0.02645 -0.0077,-0.0108 -0.01843,-0.01917 -0.02972,-0.02618 -0.01129,-0.007 -0.02328,-0.01281 -0.03478,-0.01947 -0.04843,-0.02805 -0.08653,-0.07044 -0.12741,-0.108662 -0.05592,-0.05229 -0.118063,-0.09757 -0.17413,-0.149701 -0.04746,-0.04413 -0.09054,-0.09314 -0.14156,-0.133099 -0.02284,-0.01789 -0.04713,-0.03385 -0.0704,-0.05118 -0.04485,-0.0334 -0.08573,-0.07174 -0.12772,-0.108664 -0.04013,-0.03528 -0.08134,-0.06932 -0.12357,-0.102053"
       id="path5668"
       inkscape:original-d="m 40.186523,42.780597 c 0.0151,-0.005 0.0291,-0.0083 0.0415,-0.01844 0.0394,-0.03222 0.0733,-0.06911 0.11081,-0.103282 0.0126,-0.01148 0.0258,-0.02151 0.0386,-0.03274 0.0165,-0.0145 0.0313,-0.03093 0.0478,-0.0455 0.006,-0.0053 0.0176,-0.01222 0.022,-0.01566 0.0243,-0.01902 0.0478,-0.04247 0.0701,-0.06378 0.0239,-0.02281 0.0487,-0.04532 0.0718,-0.06886 0.0219,-0.02231 0.0422,-0.04603 0.065,-0.06747 0.0255,-0.02402 0.0571,-0.0403 0.0838,-0.06286 0.0415,-0.03504 0.083,-0.07034 0.12403,-0.105894 0.0189,-0.01638 0.0367,-0.03403 0.0559,-0.04995 0.0184,-0.01516 0.04,-0.03222 0.0595,-0.04595 0.05,-0.03529 0.10633,-0.06253 0.14862,-0.107894 0.01,-0.01066 0.0145,-0.02334 0.022,-0.03535 0.009,-0.01445 0.0345,-0.04024 0.0373,-0.05671 0.001,-0.0071 -0.002,-0.0037 -0.004,-0.0082 -8e-4,-0.0019 0.005,-0.0027 0.004,-0.0045 -0.0155,-0.03274 -0.0635,-0.04148 -0.0919,-0.05794 -0.0239,-0.01389 -0.0389,-0.03895 -0.057,-0.05917 -0.0168,-0.01871 -0.0352,-0.0354 -0.0553,-0.05041 -0.01,-0.0072 -0.0203,-0.01291 -0.0295,-0.02059 -0.025,-0.02082 -0.0508,-0.04027 -0.0761,-0.06071 -0.048,-0.03879 -0.0915,-0.08279 -0.1394,-0.121727 -0.0204,-0.01659 -0.0408,-0.03523 -0.0632,-0.04918 -0.021,-0.01312 -0.0414,-0.02627 -0.0612,-0.04119 -0.0322,-0.02432 -0.0589,-0.05281 -0.0845,-0.08376 -0.0169,-0.02043 -0.0327,-0.0444 -0.0542,-0.0604 -0.0237,-0.01765 -0.0515,-0.02836 -0.0761,-0.04457 -0.011,-0.0073 -0.0208,-0.01701 -0.0321,-0.02368 -0.009,-0.0053 -0.0187,-0.0071 -0.028,-0.01154 -0.008,-0.0039 -0.017,-0.01233 -0.026,-0.0149 -0.0216,-0.0062 -0.0475,-0.0034 -0.0696,-0.0055 -0.0448,-0.0043 -0.0899,-0.0118 -0.13509,-0.0092 -0.0503,0.0029 -0.0946,0.01323 -0.14202,0.02936 -0.0202,0.0069 -0.0385,0.01236 -0.0576,0.02167 -0.0121,0.0051 -0.0227,0.01299 -0.0344,0.01876 -0.0227,0.01116 -0.048,0.01553 -0.0702,0.0269 -0.0328,0.01677 -0.0617,0.04084 -0.0919,0.06163 -0.0148,0.01021 -0.0296,0.01886 -0.0432,0.03074 -0.008,0.007 -0.0118,0.01794 -0.0189,0.02582 -0.005,0.006 -0.012,0.01082 -0.0175,0.01675 -0.0275,0.02973 -0.0539,0.06066 -0.0828,0.08899 -0.0372,0.03637 -0.0839,0.06211 -0.12449,0.09452 -0.0298,0.02381 -0.0554,0.05362 -0.0827,0.08023 -0.0234,0.02286 -0.0482,0.04431 -0.0718,0.06701 -0.0333,0.03201 -0.0678,0.06438 -0.10712,0.08868 -0.0159,0.0098 -0.0317,0.01476 -0.0493,0.01998 -0.003,0.0011 -0.008,-9.5e-5 -0.01,0.0031 -5.2e-4,0.0013 0.0123,0.01275 0.0128,0.01323 0.0188,0.0195 0.045,0.01228 0.0659,0.02582 0.0104,0.0067 0.0202,0.01463 0.0312,0.02059 0.0112,0.0061 0.0249,0.01146 0.0338,0.02106 0.0224,0.02405 0.0262,0.05269 0.0543,0.07331 0.0208,0.01535 0.0426,0.03173 0.0659,0.04334 0.0358,0.01783 0.075,0.02765 0.11128,0.04457 0.0635,0.02959 0.12663,0.09688 0.15138,0.162611 0.0104,0.02756 0.0185,0.07994 0.0343,0.101592 0.0151,0.02066 0.042,0.03177 0.0595,0.05057 0.0232,0.02484 0.0403,0.05431 0.0709,0.07116 0.008,0.0046 0.0172,0.0064 0.0263,0.0088 0.0199,0.0053 0.0486,0.01685 0.0643,0.02905 0.0172,0.01336 0.0376,0.02466 0.0532,0.03981 0.028,0.02729 0.0108,0.01148 0.0357,0.03858 0.0144,0.01569 0.0342,0.02792 0.0518,0.03981 0.0124,0.0084 0.025,0.0164 0.0381,0.02381 0.0203,0.01151 0.0419,0.0118 0.0615,0.02797 0.0126,0.01042 0.0382,0.05018 0.0369,0.06762 -5.3e-4,0.0064 -0.006,0.01376 -0.01,0.01905 -0.001,0.0019 -0.006,0.0045 -0.004,0.0051 0.007,0.0019 0.0146,0.0016 0.0218,0.0034 0.004,0.0011 0.0179,0.0044 0.0168,0.0026 -0.004,-0.0066 -0.0144,-0.0068 -0.0203,-0.01199 -0.059,-0.05196 10e-4,-0.0088 -0.0414,-0.04257 -0.0273,-0.02164 -0.0351,-0.02455 -0.0645,-0.04565 -0.0454,-0.03246 -0.086,-0.07148 -0.12741,-0.108662 -0.057,-0.05118 -0.11699,-0.09869 -0.17413,-0.149701 -0.0482,-0.04304 -0.0913,-0.09233 -0.14156,-0.133099 -0.0859,-0.06973 0.0168,0.01392 -0.0704,-0.05118 -0.045,-0.03361 -0.0807,-0.078 -0.12772,-0.108664 -0.0368,-0.024 -0.12894,-0.04192 -0.12357,-0.102053"
       inkscape:path-effect="#path-effect5670" />
    <path
       style="fill:#000000;stroke:#000000;stroke-width:0.264999;stroke-linecap:round;stroke-miterlimit:0;stroke-dasharray:none;stroke-dashoffset:23.04"
       d="m 40.135043,40.945681 c -0.0033,0.01263 -0.0078,0.02495 -0.0134,0.03673 -0.0073,0.01536 -0.01687,0.0301 -0.0304,0.04042 -0.0025,0.0019 -0.0051,0.0036 -0.0073,0.0057 -0.0023,0.0021 -0.0043,0.0047 -0.0052,0.0076 -0.0011,0.0038 -3.43e-4,0.0079 10e-4,0.01169 0.0031,0.0086 0.0091,0.01603 0.01673,0.02096 0.0077,0.0049 0.01689,0.0073 0.02598,0.0068 0.0091,-4.84e-4 0.01799,-0.0038 0.02523,-0.0093 0.0072,-0.0055 0.01282,-0.01316 0.01596,-0.02171 0.0031,-0.0085 0.0038,-0.01795 0.0021,-0.02689 -0.0017,-0.0089 -0.0058,-0.0174 -0.01164,-0.02437 -0.01171,-0.01393 -0.03044,-0.02138 -0.04861,-0.0202 -0.0098,6.34e-4 -0.01923,0.0036 -0.0283,0.0072 -0.03504,0.01405 -0.06551,0.03924 -0.0859,0.07101 -0.0017,0.002 -0.0025,0.0049 -0.002,0.0075 5.22e-4,0.0028 0.0024,0.0053 0.0049,0.0068 0.0024,0.0015 0.0054,0.0021 0.0083,0.0021 0.0058,-1.64e-4 0.01108,-0.0029 0.01625,-0.0055 0.04059,-0.02009 0.08563,-0.0301 0.12588,-0.05087 0.008,-0.0041 0.01587,-0.0087 0.0246,-0.01077 0.0023,-5.47e-4 0.0046,-9.15e-4 0.007,-0.0011 l -10e-4,0.0034 c -0.0045,0.0085 -0.0083,0.01724 -0.0114,0.02627 -0.0043,0.01255 -0.0074,0.02555 -0.009,0.03873 l 0.0164,0.01275"
       id="path5672"
       inkscape:original-d="m 40.135043,40.945681 c -0.003,0.01423 -0.005,0.02328 -0.0134,0.03673 -0.009,0.01418 -0.0199,0.02724 -0.0304,0.04042 -0.004,0.0048 -0.008,0.0088 -0.0125,0.01336 -0.0102,0.0114 -0.0199,0.03264 10e-4,0.01169 0.0121,-0.01191 0.0456,-0.06577 0.0258,-0.0747 -0.009,-0.004 -0.0191,0.0041 -0.0283,0.0072 -0.0354,0.01206 -0.0653,0.04072 -0.0859,0.07101 -10e-4,0.0021 -0.004,0.0066 -0.002,0.0075 0.009,0.0036 0.0197,0.0053 0.0294,0.0034 0.0298,-0.0058 0.0982,-0.03898 0.12588,-0.05087 0.008,-0.0035 0.0162,-0.0076 0.0246,-0.01077 0.002,-7.94e-4 0.005,-0.0019 0.007,-0.0011 10e-4,5.29e-4 -7.9e-4,0.0024 -10e-4,0.0034 -0.004,0.0088 -0.009,0.01714 -0.0114,0.02627 -0.004,0.01265 -0.006,0.02569 -0.009,0.03873 -0.002,0.01378 0.003,0.03325 0.0164,0.01275"
       inkscape:path-effect="#path-effect5674" />
    <path
       style="fill:#000000;stroke:#000000;stroke-width:0.264999;stroke-linecap:round;stroke-miterlimit:0;stroke-dasharray:none;stroke-dashoffset:23.04"
       d="m 38.990333,41.703862 -0.0347,-0.0051 c 0.0085,-0.0045 0.017,-0.0089 0.0255,-0.01336 0.01142,-0.006 0.02285,-0.01196 0.034,-0.01844 0.04798,-0.02787 0.09053,-0.0649 0.12541,-0.108048 0.01225,-0.01515 0.02355,-0.03103 0.0355,-0.04642 0.0471,-0.06065 0.103881,-0.113149 0.16338,-0.161687 0.03988,-0.03253 0.0812,-0.06351 0.11773,-0.09975 0.02928,-0.02904 0.05524,-0.06124 0.0838,-0.09099 0.02991,-0.03116 0.06258,-0.05955 0.093,-0.09022 0.03045,-0.03071 0.05884,-0.06387 0.0936,-0.0896 0.01492,-0.01104 0.03086,-0.0206 0.0464,-0.03074 0.02417,-0.01577 0.04738,-0.03298 0.0699,-0.05103 0.01654,-0.01326 0.03271,-0.02699 0.049,-0.04057 0.01815,-0.01514 0.03645,-0.0301 0.0549,-0.04488 l 0.005,-0.0045 -0.004,-2.64e-4"
       id="path5676"
       inkscape:original-d="m 38.990333,41.703862 c -0.002,-0.01045 -0.03,0.0021 -0.0347,-0.0051 -2.6e-4,-5.29e-4 0.011,-0.0058 0.0255,-0.01336 0.005,-0.0028 0.0272,-0.01426 0.034,-0.01844 0.0495,-0.03045 0.0885,-0.06283 0.12541,-0.108048 0.0282,-0.03456 0.0172,-0.02447 0.0355,-0.04642 0.0489,-0.05844 0.10586,-0.11172 0.16338,-0.161687 0.0389,-0.03384 0.0796,-0.06482 0.11773,-0.09975 0.0302,-0.02767 0.056,-0.06098 0.0838,-0.09099 0.0293,-0.03163 0.0616,-0.06072 0.093,-0.09022 0.0313,-0.02947 0.0591,-0.0635 0.0936,-0.0896 0.032,-0.02421 0.0185,-0.01196 0.0464,-0.03074 0.0239,-0.01606 0.0463,-0.03449 0.0699,-0.05103 0.0185,-0.01296 0.0346,-0.02355 0.049,-0.04057 0.0157,-0.01841 0.036,-0.03032 0.0549,-0.04488 5.3e-4,-2.65e-4 0.005,-0.0036 0.005,-0.0045 -5.3e-4,-0.0011 -0.002,-2.03e-4 -0.004,-2.64e-4"
       inkscape:path-effect="#path-effect5678" />
    <path
       style="fill:#000000;stroke:#000000;stroke-width:0.264999;stroke-linecap:round;stroke-miterlimit:0;stroke-dasharray:none;stroke-dashoffset:23.04"
       d="m 38.908103,41.67172 c -8.85e-4,0.0014 -0.0022,0.0026 -0.0037,0.0033 -0.0015,7.06e-4 -0.0033,9.5e-4 -0.0049,6.91e-4 -0.0017,-2.58e-4 -0.0033,-0.001 -0.0045,-0.0022 -0.0012,-0.0011 -0.0021,-0.0026 -0.0026,-0.0043 -4.09e-4,-0.0016 -3.25e-4,-0.0034 2.38e-4,-0.005 5.63e-4,-0.0016 0.0016,-0.003 0.003,-0.004 0.0013,-0.001 0.003,-0.0016 0.0047,-0.0017 0.0017,-9.8e-5 0.0034,3.11e-4 0.0048,0.0012 0.002,0.0012 0.0035,0.0031 0.004,0.0054 5.58e-4,0.0022 1.78e-4,0.0047 -0.001,0.0066 -0.0012,0.0019 -0.0031,0.0033 -0.0053,0.004 -0.0022,6.71e-4 -0.0045,6.24e-4 -0.0067,4e-6 -0.0022,-6.19e-4 -0.0042,-0.0018 -0.0058,-0.0033 -0.0017,-0.0015 -0.0031,-0.0033 -0.0042,-0.0052 -0.0023,-0.0039 -0.0036,-0.0083 -0.0049,-0.01254 -0.0014,-0.0043 -0.0029,-0.0086 -0.0055,-0.01229 -0.0028,-0.004 -0.0068,-0.0069 -0.01092,-0.0096 -0.0041,-0.0027 -0.0083,-0.0052 -0.01188,-0.0085 -0.0046,-0.0043 -0.0079,-0.0097 -0.01111,-0.0151 -0.0032,-0.0054 -0.0063,-0.01092 -0.01059,-0.01549 -0.0061,-0.0065 -0.01419,-0.01069 -0.02239,-0.01412 -0.0082,-0.0034 -0.0167,-0.0062 -0.02451,-0.01046 -0.01395,-0.0076 -0.02506,-0.01942 -0.03512,-0.03169 -0.01006,-0.01227 -0.01939,-0.02525 -0.03098,-0.03609 -0.0155,-0.01449 -0.03466,-0.02482 -0.0492,-0.04027 -0.01306,-0.01388 -0.02174,-0.03119 -0.0304,-0.04816 -0.0087,-0.01698 -0.01767,-0.03417 -0.0312,-0.04759 -0.01234,-0.01223 -0.02782,-0.0207 -0.0419,-0.03089 -0.01995,-0.01444 -0.03713,-0.03238 -0.0567,-0.04734 -0.02258,-0.01727 -0.04805,-0.03034 -0.0718,-0.04595 -0.04969,-0.03266 -0.09136,-0.07607 -0.13018,-0.121113 -0.0091,-0.0105 -0.01798,-0.02112 -0.0275,-0.0312 -0.02054,-0.02175 -0.04368,-0.04086 -0.0652,-0.06163 -0.01622,-0.01565 -0.03153,-0.03227 -0.0487,-0.04688 -0.02137,-0.01819 -0.0454,-0.03307 -0.0667,-0.05134 -0.02586,-0.02218 -0.04739,-0.04909 -0.0736,-0.07085 -0.02459,-0.02042 -0.05304,-0.03607 -0.0762,-0.0581 -0.02088,-0.01986 -0.03691,-0.04439 -0.0578,-0.06424 -0.02423,-0.02303 -0.05425,-0.03907 -0.0796,-0.06086 -0.01519,-0.01306 -0.02862,-0.02811 -0.0443,-0.04058 -0.01621,-0.0129 -0.03454,-0.02282 -0.0521,-0.03381 -0.01609,-0.01007 -0.03158,-0.02106 -0.047,-0.03212 -0.02886,-0.02071 -0.05793,-0.0421 -0.0796,-0.07024 -0.0069,-0.009 -0.01328,-0.01885 -0.0227,-0.02521 -0.0022,-0.0015 -0.0046,-0.0028 -0.007,-0.0038"
       id="path5680"
       inkscape:original-d="m 38.908103,41.67172 c -10e-4,-0.004 5.3e-4,-0.01312 -0.003,-0.01199 -0.004,0.0011 0.007,0.01328 0.003,0.01199 -0.009,-0.0031 -0.0232,-0.02175 -0.0324,-0.02936 -0.008,-0.0063 -0.0158,-0.01066 -0.0228,-0.01815 -0.009,-0.0094 -0.0113,-0.02222 -0.0217,-0.03059 -0.0138,-0.01111 -0.0336,-0.01225 -0.0469,-0.02458 -0.0232,-0.02159 -0.0433,-0.04583 -0.0661,-0.06778 -0.0153,-0.01476 -0.0339,-0.0254 -0.0492,-0.04027 -0.0281,-0.0273 -0.0324,-0.0696 -0.0616,-0.09575 -0.0128,-0.01146 -0.0286,-0.01992 -0.0419,-0.03089 -0.0191,-0.01574 -0.0365,-0.03279 -0.0567,-0.04734 -0.0232,-0.01672 -0.0503,-0.02622 -0.0718,-0.04595 -0.0435,-0.04006 -0.0886,-0.07905 -0.13018,-0.121113 -0.01,-0.0099 -0.0181,-0.02103 -0.0275,-0.0312 -0.0205,-0.02199 -0.0432,-0.04126 -0.0652,-0.06163 -0.0166,-0.01535 -0.0316,-0.03206 -0.0487,-0.04688 -0.0212,-0.01839 -0.0453,-0.03308 -0.0667,-0.05134 -0.026,-0.02212 -0.0474,-0.04899 -0.0736,-0.07085 -0.0245,-0.02043 -0.0543,-0.03463 -0.0762,-0.0581 -0.0195,-0.02082 -0.0363,-0.04528 -0.0578,-0.06424 -0.0249,-0.02199 -0.0539,-0.03975 -0.0796,-0.06086 -0.0154,-0.01267 -0.0282,-0.02879 -0.0443,-0.04058 -0.0167,-0.0122 -0.0348,-0.0226 -0.0521,-0.03381 -0.0161,-0.01037 -0.03,-0.02328 -0.047,-0.03212 -0.0246,-0.01275 -0.0682,-0.04383 -0.0796,-0.07024 -0.007,-0.01579 -0.004,-0.0199 -0.0227,-0.02521 -0.003,-7.94e-4 -0.0101,-0.0076 -0.007,-0.0038"
       inkscape:path-effect="#path-effect5682" />
    <path
       style="fill:#000000;stroke:#000000;stroke-width:0.264999;stroke-linecap:round;stroke-miterlimit:0;stroke-dasharray:none;stroke-dashoffset:23.04"
       d="m 39.912953,40.759692 c -0.0097,-0.0058 -0.01866,-0.01269 -0.0267,-0.02059 -0.01025,-0.01008 -0.01896,-0.02173 -0.0257,-0.03443 -0.0052,-0.0023 -0.01019,-0.005 -0.0149,-0.0081 -0.01348,-0.009 -0.02455,-0.02129 -0.0384,-0.02967 -0.0079,-0.0048 -0.01657,-0.0082 -0.0247,-0.01259 -0.01477,-0.008 -0.02758,-0.01925 -0.0389,-0.03166 -0.01182,-0.01296 -0.0221,-0.02724 -0.0335,-0.04058 -0.0192,-0.02247 -0.04156,-0.04223 -0.0662,-0.05856 -0.05092,-0.03375 -0.111605,-0.05305 -0.15646,-0.09452 -0.01459,-0.01349 -0.02713,-0.02901 -0.0404,-0.0438 -0.0219,-0.0244 -0.0459,-0.0469 -0.0667,-0.07224 -0.02793,-0.03402 -0.04995,-0.07299 -0.0813,-0.103899 -0.04949,-0.0488 -0.117947,-0.07348 -0.17167,-0.117576 -0.01642,-0.01348 -0.03134,-0.02868 -0.047,-0.04304 -0.01781,-0.01633 -0.03658,-0.0316 -0.0559,-0.04611 -0.02084,-0.01565 -0.04241,-0.03051 -0.0612,-0.04857 -0.01736,-0.01669 -0.03213,-0.03591 -0.0455,-0.05594 -0.0077,-0.01155 -0.01499,-0.0234 -0.0218,-0.03551"
       id="path5684"
       inkscape:original-d="m 39.912953,40.759692 c -0.011,-0.0066 -0.0181,-0.0098 -0.0267,-0.02059 -0.0102,-0.01286 -0.0127,-0.02387 -0.0257,-0.03443 -0.002,-0.0019 -0.0124,-0.0065 -0.0149,-0.0081 -0.0135,-0.0089 -0.0249,-0.0208 -0.0384,-0.02967 -0.0183,-0.01196 -0.009,-0.004 -0.0247,-0.01259 -0.0145,-0.0078 -0.0274,-0.02019 -0.0389,-0.03166 -0.0124,-0.01241 -0.0223,-0.02713 -0.0335,-0.04058 -0.019,-0.02291 -0.0414,-0.0421 -0.0662,-0.05856 -0.0507,-0.03364 -0.11053,-0.05364 -0.15646,-0.09452 -0.0234,-0.0208 -0.0222,-0.02334 -0.0404,-0.0438 -0.0215,-0.02418 -0.0465,-0.04691 -0.0667,-0.07224 -0.0271,-0.03399 -0.0494,-0.07395 -0.0813,-0.103899 -0.0505,-0.04748 -0.11503,-0.07835 -0.17167,-0.117576 -0.0178,-0.01236 -0.0316,-0.02801 -0.047,-0.04304 -0.0173,-0.0168 -0.0363,-0.03211 -0.0559,-0.04611 -0.0211,-0.01508 -0.0439,-0.02885 -0.0612,-0.04857 -0.0161,-0.01836 -0.0275,-0.03923 -0.0455,-0.05594 -0.006,-0.0057 -0.0321,-0.02791 -0.0218,-0.03551"
       inkscape:path-effect="#path-effect5686" />
    <path
       style="fill:#000000;stroke:#000000;stroke-width:0.264999;stroke-linecap:round;stroke-miterlimit:0;stroke-dasharray:none;stroke-dashoffset:23.04"
       d="m 37.464453,40.374352 c 0.0029,7.03e-4 0.0061,2.88e-4 0.0087,-0.0011 0.0026,-0.0014 0.0047,-0.0039 0.0057,-0.0067 9.86e-4,-0.0028 8.84e-4,-0.006 -2.79e-4,-0.0088 -0.0012,-0.0028 -0.0034,-0.005 -0.0061,-0.0063 -0.0025,-0.0012 -0.0053,-0.0014 -0.008,-7.93e-4 -0.0044,-0.004 -0.0088,-0.008 -0.0131,-0.01215 -0.02645,-0.02518 -0.05082,-0.05244 -0.0747,-0.08007 -0.01072,-0.01241 -0.02137,-0.02492 -0.0332,-0.03627 -0.03486,-0.03345 -0.07863,-0.05569 -0.12034,-0.08007 -0.04644,-0.02715 -0.09097,-0.05744 -0.13602,-0.08684 -0.03651,-0.02383 -0.07351,-0.04718 -0.10682,-0.07531 -0.05638,-0.04762 -0.100853,-0.107775 -0.15507,-0.157845 -0.02256,-0.02083 -0.04672,-0.03984 -0.0698,-0.06009 -0.03582,-0.03142 -0.06905,-0.06585 -0.10651,-0.09529 -0.02455,-0.0193 -0.05096,-0.03649 -0.0729,-0.05871 -0.01315,-0.01332 -0.02451,-0.02827 -0.0364,-0.04273 -0.01623,-0.01974 -0.03349,-0.03863 -0.0493,-0.05871 -0.01994,-0.02533 -0.0378,-0.05279 -0.0624,-0.07362 -0.02624,-0.02221 -0.05877,-0.03569 -0.0862,-0.05641 -0.02875,-0.02172 -0.05121,-0.05089 -0.0799,-0.0727 -0.0241,-0.01832 -0.05203,-0.03102 -0.0767,-0.04857 -0.03299,-0.02348 -0.05944,-0.05511 -0.0919,-0.07931 -0.01513,-0.01128 -0.03164,-0.02101 -0.0446,-0.03474 -0.01561,-0.01654 -0.02531,-0.03812 -0.0418,-0.05379 -0.01123,-0.01067 -0.02508,-0.0181 -0.0375,-0.02736 -0.01634,-0.01219 -0.03023,-0.02764 -0.0406,-0.04519"
       id="path5688"
       inkscape:original-d="m 37.464453,40.374352 c 0.004,-0.01381 0.005,-0.01516 0.008,-0.02289 7.9e-4,-0.0024 -0.005,-4.7e-5 -0.008,-7.93e-4 -0.005,-0.0019 -0.0103,-0.0088 -0.0131,-0.01215 -0.0234,-0.02831 -0.0494,-0.05345 -0.0747,-0.08007 -0.0113,-0.01188 -0.0211,-0.02519 -0.0332,-0.03627 -0.0366,-0.03363 -0.0782,-0.05467 -0.12034,-0.08007 -0.0465,-0.02802 -0.0904,-0.05703 -0.13602,-0.08684 -0.0369,-0.0241 -0.0733,-0.04651 -0.10682,-0.07531 -0.0556,-0.04774 -0.10331,-0.106079 -0.15507,-0.157845 -0.0218,-0.0218 -0.0462,-0.04035 -0.0698,-0.06009 -0.0366,-0.03065 -0.0697,-0.06487 -0.10651,-0.09529 -0.0242,-0.01998 -0.0495,-0.03762 -0.0729,-0.05871 -0.0101,-0.0091 -0.0334,-0.03912 -0.0364,-0.04273 -0.0164,-0.01961 -0.0338,-0.03848 -0.0493,-0.05871 -0.0183,-0.02384 -0.0377,-0.05458 -0.0624,-0.07362 -0.0273,-0.02104 -0.0586,-0.03565 -0.0862,-0.05641 -0.0288,-0.0217 -0.0506,-0.05155 -0.0799,-0.0727 -0.0246,-0.01778 -0.0521,-0.03069 -0.0767,-0.04857 -0.033,-0.02397 -0.0606,-0.05345 -0.0919,-0.07931 -0.0143,-0.0118 -0.0313,-0.02172 -0.0446,-0.03474 -0.0163,-0.01606 -0.0259,-0.03742 -0.0418,-0.05379 -0.0108,-0.01109 -0.0254,-0.01797 -0.0375,-0.02736 -0.0158,-0.01222 -0.0259,-0.03165 -0.0406,-0.04519"
       inkscape:path-effect="#path-effect5690" />
    <path
       style="fill:#000000;stroke:#000000;stroke-width:0.264999;stroke-linecap:round;stroke-miterlimit:0;stroke-dasharray:none;stroke-dashoffset:23.04"
       d="m 38.800193,39.803066 -0.01,-0.03873 c -0.04167,-0.02868 -0.08369,-0.05685 -0.12603,-0.08453 -0.05553,-0.03629 -0.111641,-0.07173 -0.16922,-0.104666 -0.01615,-0.0092 -0.03242,-0.01828 -0.0484,-0.02782 -0.0594,-0.03545 -0.114578,-0.07756 -0.16768,-0.121883 -0.111191,-0.09282 -0.213639,-0.195538 -0.31615,-0.29786 -0.0575,-0.05739 -0.115267,-0.114927 -0.16475,-0.179363 -0.03092,-0.04026 -0.05868,-0.0833 -0.0948,-0.118962 -0.01989,-0.01964 -0.0421,-0.03681 -0.0653,-0.05241 -0.0363,-0.0244 -0.07591,-0.04572 -0.10374,-0.07946 -0.01294,-0.01569 -0.02291,-0.03359 -0.035,-0.04995 -0.01141,-0.01544 -0.02476,-0.02951 -0.04,-0.04119 -0.01914,-0.01467 -0.04113,-0.02549 -0.0593,-0.04134 -0.01407,-0.01227 -0.02561,-0.02743 -0.0337,-0.04426 l 0.002,-0.0051 7.9e-4,-2.64e-4"
       id="path5692"
       inkscape:original-d="m 38.800193,39.803066 c -2.6e-4,-0.0016 -0.008,-0.03676 -0.01,-0.03873 -0.013,-0.02209 -0.10111,-0.07011 -0.12603,-0.08453 -0.0576,-0.0333 -0.11246,-0.07016 -0.16922,-0.104666 -0.0159,-0.0097 -0.0325,-0.0181 -0.0484,-0.02782 -0.0585,-0.03586 -0.11485,-0.07818 -0.16768,-0.121883 -0.11199,-0.09263 -0.21349,-0.195208 -0.31615,-0.29786 -0.0574,-0.05739 -0.11314,-0.116697 -0.16475,-0.179363 -0.0323,-0.03916 -0.0607,-0.0814 -0.0948,-0.118962 -0.0183,-0.02011 -0.0436,-0.03628 -0.0653,-0.05241 -0.0352,-0.02611 -0.074,-0.04657 -0.10374,-0.07946 -0.0117,-0.01297 -0.0275,-0.03893 -0.035,-0.04995 -0.0102,-0.0149 -0.0259,-0.02991 -0.04,-0.04119 -0.0189,-0.01513 -0.041,-0.02559 -0.0593,-0.04134 -0.006,-0.0054 -0.0328,-0.03606 -0.0337,-0.04426 7.9e-4,-0.0016 10e-4,-0.0034 0.002,-0.0051 2.5e-4,-1e-4 5.3e-4,-2.04e-4 7.9e-4,-2.64e-4"
       inkscape:path-effect="#path-effect5694" />
    <path
       style="fill:#000000;stroke:#000000;stroke-width:0.264999;stroke-linecap:round;stroke-miterlimit:0;stroke-dasharray:none;stroke-dashoffset:23.04"
       d="m 37.306453,38.437885 c -0.0035,0.0047 -0.0088,0.0081 -0.01464,0.009 -0.0058,9.6e-4 -0.01195,-4.42e-4 -0.01676,-0.0038 -0.0054,-0.0038 -0.0089,-0.0097 -0.0134,-0.01445 -0.0058,-0.0061 -0.01329,-0.01027 -0.0206,-0.01445 -0.06341,-0.03626 -0.122393,-0.07973 -0.18459,-0.118039 -0.02363,-0.01455 -0.04772,-0.02836 -0.0724,-0.04104 -0.02606,-0.01339 -0.05282,-0.02556 -0.0776,-0.04119 -0.06623,-0.04178 -0.114674,-0.10579 -0.17029,-0.16092 -0.05407,-0.0536 -0.115609,-0.09936 -0.16814,-0.154463 -0.05011,-0.05257 -0.09131,-0.112871 -0.13126,-0.173522 -0.02252,-0.03419 -0.04478,-0.06867 -0.0707,-0.100364 -0.02733,-0.03342 -0.05855,-0.06352 -0.0916,-0.0913 -0.03429,-0.02881 -0.07064,-0.05523 -0.10312,-0.08607 -0.03138,-0.0298 -0.05885,-0.06343 -0.0858,-0.09729 -0.01,-0.01251 -0.01996,-0.02517 -0.0323,-0.03535 -0.01201,-0.0099 -0.02592,-0.01721 -0.0389,-0.02582 -0.01182,-0.0078 -0.02287,-0.01677 -0.0346,-0.02474 -0.02709,-0.01842 -0.0579,-0.03185 -0.0815,-0.05456 -0.01276,-0.01228 -0.02299,-0.02688 -0.0344,-0.04042 -0.0064,-0.0076 -0.01319,-0.01487 -0.0198,-0.02228 -0.0035,-0.0039 -0.0069,-0.0078 -0.0103,-0.01183"
       id="path5696"
       inkscape:original-d="m 37.306453,38.437885 c -0.0131,-0.0024 -0.0195,0.0079 -0.0314,0.0052 -0.0106,-0.0024 -0.007,-0.0078 -0.0134,-0.01445 -0.005,-0.0058 -0.0141,-0.01061 -0.0206,-0.01445 -0.0629,-0.0374 -0.12103,-0.08146 -0.18459,-0.118039 -0.0241,-0.01384 -0.0478,-0.02823 -0.0724,-0.04104 -0.0147,-0.0076 -0.0622,-0.0297 -0.0776,-0.04119 -0.0706,-0.05267 -0.10974,-0.101343 -0.17029,-0.16092 -0.0551,-0.05415 -0.11571,-0.09643 -0.16814,-0.154463 -0.0488,-0.05395 -0.091,-0.113126 -0.13126,-0.173522 -0.0228,-0.03416 -0.0442,-0.06885 -0.0707,-0.100364 -0.0283,-0.03361 -0.0581,-0.06306 -0.0916,-0.0913 -0.0341,-0.02879 -0.0715,-0.05435 -0.10312,-0.08607 -0.0304,-0.0305 -0.058,-0.0644 -0.0858,-0.09729 -0.0144,-0.01699 -0.0173,-0.02238 -0.0323,-0.03535 -0.012,-0.01034 -0.026,-0.01688 -0.0389,-0.02582 -0.0111,-0.0076 -0.0224,-0.01887 -0.0346,-0.02474 -0.031,-0.01495 -0.0584,-0.02811 -0.0815,-0.05456 -0.0116,-0.01331 -0.0225,-0.02744 -0.0344,-0.04042 -0.007,-0.0078 -0.0153,-0.01265 -0.0198,-0.02228 -0.003,-0.0059 -0.004,-0.01318 -0.0103,-0.01183"
       inkscape:path-effect="#path-effect5698" />
    <path
       style="fill:#000000;stroke:#000000;stroke-width:0.264999;stroke-linecap:round;stroke-miterlimit:0;stroke-dasharray:none;stroke-dashoffset:23.04"
       d="m 35.849443,38.933554 -0.0251,-0.006 -0.008,-0.0083 c -0.0038,-0.0043 -0.0079,-0.0084 -0.0121,-0.0123 -0.0074,-0.0068 -0.01535,-0.01289 -0.023,-0.01937 -0.03402,-0.02881 -0.06135,-0.06454 -0.0885,-0.0999 -0.03554,-0.04628 -0.07133,-0.09254 -0.11189,-0.134483 -0.02596,-0.02685 -0.05379,-0.05183 -0.0802,-0.07823 -0.01605,-0.01604 -0.03157,-0.03261 -0.048,-0.04826 -0.03981,-0.03794 -0.08458,-0.07024 -0.12618,-0.106203 -0.02427,-0.02099 -0.04749,-0.04325 -0.073,-0.06271 -0.02777,-0.02118 -0.05805,-0.0389 -0.0858,-0.0601 -0.02741,-0.02094 -0.05217,-0.04514 -0.0791,-0.0667 -0.03115,-0.02493 -0.06506,-0.04621 -0.0968,-0.07039 -0.03494,-0.02661 -0.06722,-0.0567 -0.10328,-0.08177 -0.02873,-0.01997 -0.05964,-0.03661 -0.0887,-0.0561 -0.01924,-0.0129 -0.03762,-0.02702 -0.0564,-0.04058 -0.01703,-0.01229 -0.03439,-0.02412 -0.0513,-0.03658 -0.02672,-0.0197 -0.05239,-0.04109 -0.0744,-0.06594 -0.01623,-0.01832 -0.03037,-0.0384 -0.0466,-0.05671 -0.02228,-0.02513 -0.04831,-0.04672 -0.0705,-0.07193 -0.01308,-0.01486 -0.02478,-0.03093 -0.0349,-0.04795"
       id="path5700"
       inkscape:original-d="m 35.849443,38.933554 c -0.008,-0.0021 -0.0172,-0.0026 -0.0251,-0.006 -0.003,-0.0016 -0.005,-0.0056 -0.008,-0.0083 -0.004,-0.0042 -0.008,-0.0084 -0.0121,-0.0123 -0.007,-0.0068 -0.016,-0.01222 -0.023,-0.01937 -0.0315,-0.03183 -0.0599,-0.06562 -0.0885,-0.0999 -0.0373,-0.04467 -0.0723,-0.09184 -0.11189,-0.134483 -0.0218,-0.02347 -0.064,-0.06261 -0.0802,-0.07823 -0.0163,-0.01574 -0.0315,-0.03267 -0.048,-0.04826 -0.04,-0.03789 -0.0842,-0.07067 -0.12618,-0.106203 -0.0245,-0.02072 -0.0473,-0.04347 -0.073,-0.06271 -0.0278,-0.02077 -0.0583,-0.03888 -0.0858,-0.0601 -0.0273,-0.02106 -0.052,-0.04552 -0.0791,-0.0667 -0.0315,-0.02453 -0.065,-0.04632 -0.0968,-0.07039 -0.035,-0.02652 -0.0687,-0.05476 -0.10328,-0.08177 -0.0282,-0.02204 -0.0582,-0.03782 -0.0887,-0.0561 -0.02,-0.01199 -0.0374,-0.02715 -0.0564,-0.04058 -0.0173,-0.01228 -0.0348,-0.02328 -0.0513,-0.03658 -0.0255,-0.02045 -0.0525,-0.04141 -0.0744,-0.06594 -0.0166,-0.01863 -0.0284,-0.03939 -0.0466,-0.05671 -0.0245,-0.02334 -0.0472,-0.04751 -0.0705,-0.07193 -0.0137,-0.01437 -0.0325,-0.0271 -0.0349,-0.04795"
       inkscape:path-effect="#path-effect5702" />
    <path
       style="fill:#000000;stroke:#000000;stroke-width:0.264999;stroke-linecap:round;stroke-miterlimit:0;stroke-dasharray:none;stroke-dashoffset:23.04"
       d="m 34.412733,37.671115 c -0.01471,-0.01033 -0.03057,-0.019 -0.0472,-0.02582 -0.01869,-0.0077 -0.03891,-0.01331 -0.054,-0.02674 -0.01281,-0.01141 -0.02059,-0.0273 -0.02763,-0.04294 -0.007,-0.01564 -0.01385,-0.03179 -0.02537,-0.04451 -0.01351,-0.01492 -0.03231,-0.02382 -0.048,-0.03643 -0.02012,-0.01617 -0.03471,-0.03807 -0.0524,-0.05687 -0.02869,-0.03049 -0.06507,-0.05241 -0.10051,-0.0747 -0.03578,-0.02251 -0.07113,-0.04584 -0.1039,-0.07254 -0.05547,-0.0452 -0.102788,-0.09942 -0.1543,-0.149085 -0.08129,-0.07838 -0.172913,-0.145263 -0.25652,-0.221167 -0.03691,-0.03351 -0.07265,-0.06907 -0.11542,-0.09468 -0.0316,-0.01892 -0.06753,-0.03283 -0.0916,-0.06071 -0.0095,-0.01105 -0.0168,-0.02387 -0.026,-0.0352 -0.0063,-0.0078 -0.01381,-0.01499 -0.0232,-0.01844 -0.0064,-0.0023 -0.01346,-0.0028 -0.0201,-0.0013"
       id="path5704"
       inkscape:original-d="m 34.412733,37.671115 c -0.0177,-0.0049 -0.0305,-0.0191 -0.0472,-0.02582 -0.0197,-0.0079 -0.0385,-0.0095 -0.054,-0.02674 -0.023,-0.02566 -0.0277,-0.06326 -0.053,-0.08745 -0.0152,-0.01458 -0.0317,-0.02302 -0.048,-0.03643 -0.0213,-0.01762 -0.0341,-0.03624 -0.0524,-0.05687 -0.0308,-0.03466 -0.0605,-0.05099 -0.10051,-0.0747 -0.0359,-0.0213 -0.0718,-0.04568 -0.1039,-0.07254 -0.0551,-0.04617 -0.10089,-0.101106 -0.1543,-0.149085 -0.0841,-0.07552 -0.17246,-0.145682 -0.25652,-0.221167 -0.0368,-0.03307 -0.0736,-0.0679 -0.11542,-0.09468 -0.0308,-0.01974 -0.066,-0.03352 -0.0916,-0.06071 -0.0103,-0.01098 -0.0161,-0.02402 -0.026,-0.0352 -0.006,-0.0069 -0.0158,-0.01318 -0.0232,-0.01844 -0.005,-0.0037 -0.0224,-0.01725 -0.0201,-0.0013"
       inkscape:path-effect="#path-effect5706" />
    <path
       style="fill:#000000;stroke:#000000;stroke-width:0.264999;stroke-linecap:round;stroke-miterlimit:0;stroke-dasharray:none;stroke-dashoffset:23.04"
       d="m 35.786903,37.061403 c -0.01965,-6.42e-4 -0.03916,-0.0053 -0.057,-0.01352 -0.02781,-0.01286 -0.05079,-0.03394 -0.075,-0.05272 -0.02996,-0.02323 -0.06227,-0.04321 -0.0945,-0.06317 -0.04055,-0.0251 -0.08111,-0.05026 -0.12327,-0.07254 -0.03275,-0.01731 -0.06663,-0.03299 -0.0964,-0.05502 -0.04141,-0.03064 -0.07314,-0.07225 -0.10943,-0.108818 -0.03083,-0.03107 -0.0653,-0.05884 -0.0919,-0.0936 -0.01402,-0.01831 -0.02565,-0.03832 -0.0387,-0.05733 -0.0159,-0.02317 -0.034,-0.04502 -0.0467,-0.07009 -0.0064,-0.01254 -0.0113,-0.02578 -0.01812,-0.03807 -0.0068,-0.01229 -0.01586,-0.02386 -0.02818,-0.03063 -0.007,-0.0038 -0.01485,-0.006 -0.0228,-0.0063"
       id="path5708"
       inkscape:original-d="m 35.786903,37.061403 c -0.0183,-0.01161 -0.0382,-0.0032 -0.057,-0.01352 -0.0265,-0.01452 -0.0511,-0.03446 -0.075,-0.05272 -0.0299,-0.02286 -0.0625,-0.04352 -0.0945,-0.06317 -0.0404,-0.02474 -0.0812,-0.0508 -0.12327,-0.07254 -0.0376,-0.01942 -0.0627,-0.02837 -0.0964,-0.05502 -0.0402,-0.03179 -0.0739,-0.07224 -0.10943,-0.108818 -0.0304,-0.03131 -0.0647,-0.05929 -0.0919,-0.0936 -0.015,-0.01895 -0.0254,-0.03682 -0.0387,-0.05733 -0.0153,-0.02358 -0.0322,-0.04599 -0.0467,-0.07009 -0.0154,-0.02551 -0.0218,-0.04635 -0.0463,-0.0687 -0.0104,-0.0095 -0.0147,-0.0082 -0.0228,-0.0063"
       inkscape:path-effect="#path-effect5710" />
    <path
       style="fill:#000000;stroke:#000000;stroke-width:0.264999;stroke-linecap:round;stroke-miterlimit:0;stroke-dasharray:none;stroke-dashoffset:23.04"
       d="m 34.971863,36.307445 c -0.01686,-0.01259 -0.0334,-0.02561 -0.0496,-0.03904 -0.03337,-0.02766 -0.06536,-0.0571 -0.10067,-0.08223 -0.06882,-0.04899 -0.149048,-0.08077 -0.21548,-0.132948 -0.02589,-0.02034 -0.04943,-0.04359 -0.0709,-0.06855 -0.01756,-0.0204 -0.03376,-0.04196 -0.0518,-0.06194 -0.02953,-0.03269 -0.06396,-0.06102 -0.10205,-0.08315 -0.01422,-0.0083 -0.02894,-0.01567 -0.04273,-0.02462 -0.01379,-0.009 -0.02675,-0.01963 -0.03607,-0.03317 -0.0049,-0.0071 -0.0087,-0.01479 -0.01302,-0.02217 -0.0044,-0.0074 -0.0094,-0.01454 -0.01618,-0.01979 -0.0069,-0.0053 -0.01524,-0.0084 -0.02339,-0.01157 -0.0082,-0.0031 -0.01643,-0.0065 -0.02301,-0.01224 -0.0074,-0.0065 -0.01211,-0.01553 -0.01732,-0.02394 -0.0026,-0.0042 -0.0054,-0.0083 -0.0088,-0.01192 -0.0034,-0.0036 -0.0074,-0.0067 -0.01198,-0.0086 -0.0073,-0.003 -0.01572,-0.0026 -0.02308,2.56e-4 -0.0074,0.0028 -0.01368,0.0079 -0.01871,0.01401 -0.01006,0.01213 -0.01494,0.02757 -0.02092,0.04214 -0.02728,0.06652 -0.0802,0.119246 -0.136714,0.16369 -0.05652,0.04444 -0.118027,0.08264 -0.171286,0.130945 -0.03159,0.02865 -0.06002,0.06064 -0.0867,0.09391 -0.02339,0.02917 -0.04548,0.05938 -0.0689,0.08853 -0.02997,0.0373 -0.06209,0.07284 -0.0914,0.110659 -0.03912,0.05048 -0.07308,0.104867 -0.10252,0.161536 -0.0092,0.01771 -0.01801,0.03573 -0.02954,0.05202 -0.01153,0.01629 -0.02606,0.03096 -0.04406,0.03958 -0.0096,0.0046 -0.02012,0.0075 -0.02871,0.01373 -0.0043,0.0031 -0.0081,0.0071 -0.01028,0.01196 -0.0022,0.0048 -0.0028,0.01051 -0.001,0.01551 0.0012,0.0032 0.0033,0.006 0.006,0.008"
       id="path5712"
       inkscape:original-d="m 34.971863,36.307445 c -0.0174,-0.01199 -0.0336,-0.02535 -0.0496,-0.03904 -0.0329,-0.02799 -0.0634,-0.05987 -0.10067,-0.08223 -0.0725,-0.04351 -0.15006,-0.07865 -0.21548,-0.132948 -0.0258,-0.02146 -0.0491,-0.04312 -0.0709,-0.06855 -0.0174,-0.02032 -0.0323,-0.04358 -0.0518,-0.06194 -0.0322,-0.03037 -0.0657,-0.05799 -0.10205,-0.08315 -0.0271,-0.01879 -0.0545,-0.03527 -0.0788,-0.05779 -0.012,-0.01111 -0.0192,-0.03421 -0.0292,-0.04196 -0.0132,-0.01024 -0.0358,-0.01024 -0.0464,-0.02381 -0.0103,-0.0131 -0.0184,-0.04169 -0.0381,-0.04442 -0.0156,-0.0021 -0.0519,0.04625 -0.0627,0.05641 -0.10378,0.09719 -0.20887,0.19263 -0.308,0.294635 -0.0295,0.03032 -0.06,0.06106 -0.0867,0.09391 -0.0236,0.02896 -0.0452,0.05974 -0.0689,0.08853 -0.0303,0.03681 -0.0633,0.07212 -0.0914,0.110659 -0.0377,0.05158 -0.0653,0.10968 -0.10252,0.161536 -0.0227,0.03162 -0.0463,0.06383 -0.0736,0.0916 -0.0123,0.01246 -0.0315,0.02574 -0.04,0.04119 -0.005,0.0088 -0.001,0.0068 0.006,0.008"
       inkscape:path-effect="#path-effect5714" />
    <path
       style="fill:#000000;stroke:#000000;stroke-width:0.260509;stroke-linecap:round;stroke-miterlimit:0;stroke-dasharray:none;stroke-dashoffset:23.04"
       d="m 33.474073,47.084637 c 0.01915,-0.0025 0.03735,-0.01181 0.05061,-0.02585 0.01326,-0.01405 0.02149,-0.03275 0.0229,-0.05201 0.0014,-0.01927 -0.004,-0.03896 -0.0151,-0.05479 -0.01108,-0.01582 -0.02773,-0.02766 -0.04632,-0.03293 -0.01859,-0.0053 -0.03897,-0.0039 -0.05671,0.0037 -0.01774,0.0077 -0.03269,0.02157 -0.0416,0.03872 -0.0089,0.01714 -0.01171,0.03738 -0.0078,0.05629 0.0039,0.01892 0.01453,0.03637 0.02952,0.04856 0.01782,0.0145 0.04172,0.02127 0.0645,0.01828 0.01732,-0.0023 0.03368,-0.0099 0.0476,-0.02048 0.01392,-0.01055 0.02551,-0.02393 0.03544,-0.0383 0.01986,-0.02875 0.03325,-0.06147 0.0521,-0.09089 0.03507,-0.0547 0.08743,-0.09562 0.13853,-0.135746 0.04778,-0.03752 0.09553,-0.07545 0.13767,-0.119211 0.006,-0.0062 0.01189,-0.01261 0.01559,-0.02036 0.0018,-0.0039 0.0031,-0.0081 0.0034,-0.01234 3.08e-4,-0.0043 -3.63e-4,-0.0087 -0.0022,-0.01255 -0.0025,-0.0052 -0.0068,-0.0092 -0.01,-0.01393 -0.0057,-0.0085 -0.0074,-0.01942 -0.0056,-0.02952 0.0018,-0.0101 0.0069,-0.01944 0.01371,-0.02715 0.01354,-0.01543 0.03289,-0.02424 0.05148,-0.03295 0.129687,-0.0607 0.253721,-0.139125 0.34673,-0.247994 0.0342,-0.04003 0.06407,-0.084 0.10242,-0.120081 0.03278,-0.03084 0.07124,-0.05541 0.10241,-0.08788 0.0297,-0.03094 0.05264,-0.06887 0.0874,-0.09398 0.0279,-0.02015 0.06191,-0.03086 0.0889,-0.05221 0.02166,-0.01714 0.03773,-0.0403 0.0579,-0.05917 0.02644,-0.02473 0.05917,-0.04144 0.0897,-0.06091 0.04828,-0.03079 0.09156,-0.06889 0.1318,-0.109639 0.08761,-0.0887 0.162137,-0.190911 0.25942,-0.268879 0.05999,-0.04808 0.127657,-0.0861 0.18636,-0.135745 0.05671,-0.04796 0.103998,-0.105861 0.15281,-0.161848 0.05168,-0.05928 0.105613,-0.116943 0.16621,-0.167071 0.05625,-0.04653 0.118171,-0.08652 0.16958,-0.138354 0.0425,-0.04285 0.07738,-0.09339 0.12426,-0.131394 0.03175,-0.02574 0.06835,-0.04518 0.099,-0.07221 0.04189,-0.03695 0.07079,-0.08637 0.10998,-0.126174 0.02392,-0.02429 0.0514,-0.04472 0.0772,-0.067 0.156648,-0.135243 0.248398,-0.335359 0.41136,-0.462922 0.07776,-0.06087 0.168647,-0.102628 0.25017,-0.158368 0.115776,-0.07916 0.210352,-0.184789 0.30894,-0.284541 0.03854,-0.03899 0.07833,-0.07784 0.10577,-0.125303 0.01371,-0.02372 0.02432,-0.04955 0.042,-0.07048 0.01681,-0.0199 0.03916,-0.03431 0.06209,-0.04666 0.02293,-0.01235 0.04684,-0.02296 0.06885,-0.03688 0.04467,-0.02826 0.07979,-0.06895 0.115175,-0.108225 0.03538,-0.03927 0.07273,-0.07848 0.119895,-0.102351 0.0259,-0.01311 0.05425,-0.02123 0.0831,-0.02436 0.05473,-0.0059 0.109711,0.006 0.163035,0.01967 0.05332,0.01367 0.10683,0.02925 0.161855,0.0308 0.06254,0.0018 0.124312,-0.01475 0.182724,-0.03717 0.05841,-0.02242 0.114365,-0.05079 0.172386,-0.07421 0.06907,-0.02787 0.140841,-0.04862 0.21324,-0.06613 0.09861,-0.02385 0.199127,-0.04193 0.29383,-0.07831 0.06341,-0.02436 0.123649,-0.05673 0.18805,-0.07832 0.133395,-0.04473 0.27773,-0.04116 0.41808,-0.03133 0.01637,0.0011 0.03278,0.0024 0.04884,0.0057 0.01606,0.0033 0.03185,0.0089 0.04546,0.01802 0.01362,0.0091 0.02498,0.02212 0.03047,0.03758 0.0027,0.0077 0.004,0.01601 0.0034,0.02419 -5.88e-4,0.0082 -0.003,0.01625 -0.0073,0.02325 -0.0073,0.01194 -0.01927,0.02011 -0.0286,0.03053 -0.0047,0.0052 -0.0087,0.0111 -0.01086,0.01776 -0.0021,0.0067 -0.0022,0.01416 8.59e-4,0.02045 0.0017,0.0035 0.0043,0.0066 0.0073,0.0091 0.003,0.0025 0.0063,0.0046 0.0098,0.0065 0.0069,0.0038 0.01417,0.007 0.01994,0.01228 0.0059,0.0054 0.0099,0.01294 0.0109,0.02089 0.0012,0.0095 -0.0017,0.01924 -0.0066,0.02748 -0.0049,0.0082 -0.01174,0.01518 -0.01882,0.02166 -0.0071,0.0065 -0.01452,0.0126 -0.02105,0.01963 -0.0065,0.007 -0.01218,0.01513 -0.01492,0.02433 -0.0028,0.0093 -0.0025,0.0191 -0.0022,0.02876 2.36e-4,0.0097 3.43e-4,0.01954 -0.0028,0.02867 -0.0027,0.008 -0.0079,0.01508 -0.01417,0.02078 -0.0063,0.0057 -0.01365,0.01007 -0.02135,0.01361 -0.01539,0.0071 -0.0321,0.01094 -0.04758,0.01782 -0.03256,0.01447 -0.05836,0.04204 -0.07421,0.07395 -0.01585,0.03191 -0.02224,0.06794 -0.02239,0.103565 -7.5e-5,0.01895 0.0016,0.03802 -0.0013,0.05675 -0.0014,0.0094 -0.004,0.01861 -0.0083,0.02704 -0.0043,0.0084 -0.01041,0.01605 -0.01816,0.0215 -0.01247,0.0088 -0.02807,0.01137 -0.0427,0.01564 -0.03167,0.0092 -0.06028,0.02703 -0.08598,0.04772 -0.0257,0.02069 -0.04881,0.04436 -0.07268,0.06714 -0.121657,0.116091 -0.263077,0.209133 -0.39373,0.314997 -0.09597,0.07776 -0.188336,0.165349 -0.24178,0.276708 -0.01446,0.03012 -0.02591,0.0617 -0.04205,0.09096 -0.01614,0.02926 -0.03772,0.05669 -0.06708,0.07263 -0.02369,0.01287 -0.05098,0.01752 -0.0755,0.02872 -0.03181,0.01453 -0.05762,0.0394 -0.08154,0.0649 -0.02392,0.02551 -0.04692,0.05238 -0.07546,0.07258 -0.03586,0.02537 -0.07865,0.03894 -0.11669,0.06091 -0.05817,0.0336 -0.103161,0.08554 -0.146125,0.137187 -0.04296,0.05164 -0.08597,0.104802 -0.141815,0.142133 -0.04378,0.02926 -0.09428,0.04794 -0.13601,0.08006 -0.0281,0.02163 -0.0514,0.04872 -0.0763,0.07396 -0.06123,0.06205 -0.13253,0.113157 -0.20483,0.16185 -0.06415,0.04321 -0.130195,0.08544 -0.18218,0.142706 -0.05071,0.05587 -0.08726,0.125222 -0.14692,0.171419 -0.0351,0.02718 -0.07691,0.04521 -0.10997,0.07484 -0.03193,0.02861 -0.05416,0.06668 -0.0857,0.09572 -0.02753,0.02534 -0.06123,0.04295 -0.0906,0.06613 -0.06291,0.04964 -0.104226,0.123305 -0.16958,0.169682 -0.0444,0.03151 -0.09716,0.04846 -0.147582,0.069 -0.05043,0.02053 -0.101141,0.04657 -0.133658,0.09024 -0.0195,0.02619 -0.03126,0.05717 -0.0445,0.08702 -0.03842,0.0866 -0.09217,0.167855 -0.16539,0.22798 -0.05723,0.04699 -0.124517,0.07978 -0.1872,0.119211 -0.0835,0.05252 -0.158822,0.116831 -0.23591,0.178383 -0.108451,0.08659 -0.221407,0.168537 -0.31818,0.268011 -0.04137,0.04252 -0.07955,0.08803 -0.12004,0.131391 -0.176478,0.189013 -0.396584,0.337331 -0.54988,0.545587 -0.04425,0.06011 -0.08358,0.125873 -0.14272,0.171423 -0.04367,0.03364 -0.09613,0.05455 -0.13936,0.08875 -0.04271,0.03379 -0.07519,0.07962 -0.12005,0.11051 -0.03138,0.02161 -0.06755,0.03502 -0.101102,0.05307 -0.01678,0.009 -0.033,0.01928 -0.04719,0.03199 -0.01418,0.01271 -0.02632,0.02798 -0.03388,0.04546 -0.0032,0.0073 -0.0055,0.01496 -0.0084,0.02239 -0.0029,0.0074 -0.0063,0.01475 -0.01145,0.02087 -0.0051,0.0061 -0.01201,0.011 -0.01985,0.01247 -0.0039,7.33e-4 -0.008,5.93e-4 -0.01183,-5.75e-4 -0.0038,-0.0012 -0.0073,-0.0034 -0.0099,-0.0064 -0.0037,-0.0043 -0.0052,-0.01015 -0.0052,-0.01582 8.2e-5,-0.0057 0.0017,-0.01121 0.0039,-0.01643 0.0044,-0.01045 0.01111,-0.0201 0.01304,-0.03127 0.0014,-0.0081 1.19e-4,-0.01664 -0.0032,-0.0242 -0.0033,-0.0076 -0.0086,-0.01419 -0.01488,-0.01952 -0.01261,-0.01066 -0.02893,-0.01595 -0.0452,-0.01872 -0.01627,-0.0028 -0.03285,-0.0032 -0.04919,-0.0056 -0.01634,-0.0023 -0.03282,-0.0067 -0.04622,-0.01638 -0.0165,-0.01187 -0.0269,-0.03082 -0.03178,-0.05055 -0.0049,-0.01973 -0.0047,-0.04035 -0.0034,-0.06064 0.0013,-0.02029 0.0036,-0.04056 0.0029,-0.06087 -6.61e-4,-0.02032 -0.0045,-0.04096 -0.01473,-0.05853 -0.01344,-0.02308 -0.03652,-0.03872 -0.05965,-0.05207 -0.02313,-0.01335 -0.04749,-0.02554 -0.06628,-0.04452 -0.02657,-0.02684 -0.03916,-0.06433 -0.0614,-0.09485 -0.01847,-0.02535 -0.04318,-0.04534 -0.06704,-0.06571 -0.02386,-0.02037 -0.04756,-0.04191 -0.06309,-0.06916 -0.01573,-0.02761 -0.02229,-0.05975 -0.0386,-0.08702 -0.0164,-0.02742 -0.04159,-0.0482 -0.0645,-0.07047 -0.01191,-0.01158 -0.02333,-0.0237 -0.03606,-0.03437 -0.01273,-0.01066 -0.02696,-0.01992 -0.04284,-0.0248 -0.0086,-0.0026 -0.01747,-0.0039 -0.02621,-0.0059 -0.0087,-0.002 -0.01749,-0.0047 -0.02489,-0.0097 -0.0082,-0.0056 -0.01444,-0.01402 -0.01741,-0.02349 -0.003,-0.0095 -0.0026,-0.01995 9.16e-4,-0.02922 0.0036,-0.0093 0.01031,-0.01729 0.01884,-0.02236 0.0085,-0.0051 0.0188,-0.0072 0.02865,-0.0059 z"
       id="path5720"
       inkscape:original-d="m 33.474073,47.084637 c -0.0216,-0.0061 -0.0588,-0.0406 -0.0645,-0.01828 -0.006,0.02232 0.0455,0.0302 0.0645,0.01828 0.0564,-0.0352 0.0839,-0.10667 0.13515,-0.149666 0.0495,-0.04144 0.0894,-0.09604 0.13853,-0.135746 0.0506,-0.041 0.0988,-0.06403 0.13767,-0.119211 0.009,-0.01204 0.0162,-0.03115 0.0168,-0.04525 2.3e-4,-0.0058 -0.0134,-0.0092 -0.01,-0.01393 0.0209,-0.02946 0.0363,-0.06166 0.0596,-0.08962 0.0942,-0.113042 0.24121,-0.153893 0.34673,-0.247994 0.0386,-0.03447 0.0667,-0.08237 0.10242,-0.120081 0.0321,-0.03397 0.0691,-0.05581 0.10241,-0.08788 0.0304,-0.02937 0.0548,-0.0673 0.0874,-0.09398 0.0266,-0.02177 0.0616,-0.03047 0.0889,-0.05221 0.0224,-0.01771 0.0374,-0.03998 0.0579,-0.05917 0.0276,-0.02575 0.061,-0.03843 0.0897,-0.06091 0.0436,-0.03393 0.0875,-0.07416 0.1318,-0.109639 0.0958,-0.07669 0.171,-0.182956 0.25942,-0.268879 0.0547,-0.05317 0.12721,-0.08788 0.18636,-0.135745 0.056,-0.0453 0.10572,-0.107376 0.15281,-0.161848 0.0512,-0.05936 0.11295,-0.109563 0.16621,-0.167071 0.0474,-0.05118 0.11706,-0.09228 0.16958,-0.138354 0.0448,-0.03924 0.0794,-0.09434 0.12426,-0.131394 0.0316,-0.0262 0.0672,-0.0462 0.099,-0.07221 0.0425,-0.03469 0.071,-0.0872 0.10998,-0.126174 0.0241,-0.02412 0.0533,-0.04223 0.0772,-0.067 0.14144,-0.146602 0.25408,-0.327737 0.41136,-0.462922 0.0745,-0.06407 0.17263,-0.09538 0.25017,-0.158368 0.10616,-0.08624 0.22183,-0.176201 0.30894,-0.284541 0.0345,-0.04284 0.0715,-0.08282 0.10577,-0.125303 0.017,-0.02106 0.0212,-0.05125 0.042,-0.07048 0.0391,-0.036 0.0871,-0.0551 0.13095,-0.08354 0.0868,-0.05624 0.16418,-0.137101 0.23507,-0.210576 0.0124,-0.01281 0.0747,-0.0223 0.0831,-0.02436 0.11935,-0.02946 0.20714,0.06422 0.32489,0.05047 0.12098,-0.01414 0.23774,-0.08259 0.35511,-0.11138 0.0726,-0.01776 0.14166,-0.04552 0.21324,-0.06613 0.0984,-0.02833 0.19684,-0.0433 0.29383,-0.07831 0.0633,-0.02286 0.12337,-0.06049 0.18805,-0.07832 0.0953,-0.02624 0.31877,-0.07135 0.41808,-0.03133 0.0381,0.01538 0.0915,0.0783 0.12088,0.108768 0.0234,0.02431 -0.0641,0.01376 -0.0386,0.06874 0.01,0.02132 0.0182,0.01875 0.037,0.02785 0.007,0.0034 0.006,0.01458 0.0109,0.02089 0.0392,0.05299 -0.0365,0.04821 -0.0614,0.0931 -0.01,0.01716 0.0141,0.04386 -0.005,0.05743 -0.0124,0.0088 -0.0799,0.0331 -0.0831,0.05221 -0.0105,0.0623 -0.0725,0.117371 -0.0966,0.177514 -0.0102,0.02553 -0.011,0.08664 -0.0278,0.105289 -0.0102,0.0114 -0.0293,0.0061 -0.0427,0.01564 -0.0499,0.03566 -0.10358,0.09136 -0.15866,0.114861 -0.14335,0.06118 -0.34513,0.142638 -0.39373,0.314997 -0.0311,0.110494 -0.16312,0.201218 -0.24178,0.276708 -0.0461,0.04417 -0.0545,0.125485 -0.10913,0.16359 -0.023,0.01602 -0.054,0.01077 -0.0755,0.02872 -0.0527,0.0437 -0.1,0.09978 -0.157,0.137482 -0.0367,0.02428 -0.0799,0.03608 -0.11669,0.06091 -0.0946,0.0639 -0.19361,0.201516 -0.28794,0.27932 -0.0444,0.03662 -0.09,0.04905 -0.13601,0.08006 -0.0294,0.01984 -0.0474,0.0536 -0.0763,0.07396 -0.0722,0.05061 -0.1358,0.107335 -0.20483,0.16185 -0.0609,0.04804 -0.12653,0.08701 -0.18218,0.142706 -0.0532,0.05328 -0.0938,0.117531 -0.14692,0.171419 -0.0311,0.03169 -0.0775,0.04424 -0.10997,0.07484 -0.0314,0.02973 -0.0515,0.0693 -0.0857,0.09572 -0.0294,0.02291 -0.0628,0.04066 -0.0906,0.06613 -0.0583,0.05313 -0.10451,0.123854 -0.16958,0.169682 -0.0813,0.05725 -0.21661,0.09088 -0.28124,0.159235 -0.0231,0.02453 -0.0255,0.05982 -0.0445,0.08702 -0.0512,0.07351 -0.10015,0.167298 -0.16539,0.22798 -0.0558,0.05192 -0.13002,0.06971 -0.1872,0.119211 -0.0749,0.06476 -0.16283,0.113326 -0.23591,0.178383 -0.10388,0.09247 -0.21313,0.177015 -0.31818,0.268011 -0.0448,0.03881 -0.0771,0.09058 -0.12004,0.131391 -0.18668,0.177589 -0.3701,0.35925 -0.54988,0.545587 -0.0518,0.05362 -0.091,0.117866 -0.14272,0.171423 -0.0378,0.03908 -0.0976,0.05355 -0.13936,0.08875 -0.0416,0.03508 -0.0785,0.07537 -0.12005,0.11051 -0.0585,0.04952 -0.11139,0.130525 -0.18217,0.130525 -0.004,0 -0.0614,0.05063 -0.0614,0.04873 0,-0.02031 0.0158,-0.04251 0.0118,-0.06352 -0.013,-0.06906 -0.13645,-0.02744 -0.15868,-0.08441 -0.0303,-0.07803 0.008,-0.15676 -0.047,-0.23059 -0.032,-0.0429 -0.0902,-0.05772 -0.12593,-0.09659 -0.0263,-0.02863 -0.0347,-0.06631 -0.0614,-0.09485 -0.0412,-0.04422 -0.0942,-0.08654 -0.13013,-0.134872 -0.0183,-0.02465 -0.019,-0.06034 -0.0386,-0.08702 -0.0195,-0.02642 -0.0465,-0.04276 -0.0645,-0.07047 -0.0177,-0.02712 -0.0474,-0.05157 -0.0789,-0.05917 -0.0173,-0.0042 -0.0527,0.0027 -0.0511,-0.01564 0.002,-0.02892 0.0208,-0.05394 0.031,-0.08093 z"
       inkscape:path-effect="#path-effect5722" />
    <path
       style="font-variation-settings:normal;vector-effect:none;fill:#000000;fill-opacity:1;fill-rule:evenodd;stroke:#000000;stroke-width:0.666448;stroke-linecap:butt;stroke-linejoin:miter;stroke-miterlimit:4;stroke-dasharray:none;stroke-dashoffset:0;stroke-opacity:1;-inkscape-stroke:none;stop-color:#000000"
       id="rect5747"
       width="10.341505"
       height="1.3329999"
       x="43.529411"
       y="46.272205"
       inkscape:path-effect="#path-effect5749"
       d="m 43.684534,46.272205 h 10.166387 a 0.019995,0.019995 45 0 1 0.02,0.02 v 1.157883 a 0.15512258,0.15512258 135 0 1 -0.155122,0.155122 l -10.166388,0 a 0.019995,0.019995 45 0 1 -0.01999,-0.02 v -1.157882 a 0.15512258,0.15512258 135 0 1 0.155123,-0.155123 z"
       sodipodi:type="rect" />
    <text
       xml:space="preserve"
       transform="matrix(0.26458333,0,0,0.26458333,-81.227095,41.40729)"
       id="text5851"
       style="font-style:normal;font-variant:normal;font-weight:normal;font-stretch:normal;font-size:80px;line-height:0;font-family:System-ui;-inkscape-font-specification:System-ui;white-space:pre;shape-inside:url(#rect5853);display:inline;fill:#ffffff;stroke:#000000;stroke-width:1.00157;stroke-linecap:round;stroke-miterlimit:0;stroke-dasharray:none;stroke-dashoffset:23.04"><tspan
         x="398.80859"
         y="115.39824"
         id="tspan12511"><tspan
           style="font-weight:bold;-inkscape-font-specification:'System-ui Bold'"
           id="tspan12509">.aw</tspan></tspan></text>
  </g>
</svg>
